<svg width="512" height="512" viewBox="0 0 512 512" fill="none" xmlns="http://www.w3.org/2000/svg">
<path d="M0 256C0 114.615 114.615 0 256 0C397.385 0 512 114.615 512 256C512 397.385 397.385 512 256 512C114.615 512 0 397.385 0 256Z" fill="#BB2234"/>
<path d="M369.081 202.181C382.014 228.986 384.959 259.527 377.385 288.311C369.81 317.094 352.215 342.229 327.762 359.197C303.31 376.165 273.605 383.851 243.992 380.873C214.378 377.894 186.799 364.447 166.215 342.95" stroke="#F8931F" stroke-width="51" stroke-linecap="round"/>
<path d="M244.73 350C242.699 350 241.037 349.354 239.745 348.063C238.452 346.772 237.806 345.112 237.806 343.083V323.993C223.589 322.149 211.68 318.552 202.08 313.203C192.663 307.854 185.555 301.399 180.755 293.837C175.954 286.09 173.369 277.974 173 269.49C173 268.014 173.554 266.723 174.662 265.617C175.954 264.326 177.431 263.68 179.093 263.68H213.988C216.573 263.68 218.512 264.141 219.804 265.063C221.097 265.986 222.389 267.184 223.682 268.66C225.159 271.427 227.19 274.101 229.774 276.683C232.544 279.266 236.052 281.387 240.299 283.047C244.73 284.522 250.176 285.26 256.638 285.26C267.347 285.26 275.379 283.6 280.733 280.28C286.272 276.96 289.041 272.441 289.041 266.723C289.041 262.666 287.564 259.346 284.61 256.763C281.656 253.997 276.856 251.599 270.209 249.57C263.747 247.357 255.069 245.143 244.176 242.93C230.144 239.979 218.143 236.198 208.172 231.587C198.387 226.791 190.909 220.612 185.74 213.05C180.57 205.303 177.985 195.712 177.985 184.277C177.985 169.521 183.247 156.979 193.771 146.65C204.48 136.321 219.158 129.866 237.806 127.283V107.917C237.806 105.888 238.452 104.228 239.745 102.937C241.037 101.646 242.699 101 244.73 101H267.716C269.563 101 271.132 101.646 272.425 102.937C273.902 104.228 274.64 105.888 274.64 107.917V127.837C287.38 130.05 298.088 134.016 306.766 139.733C315.444 145.451 321.998 151.907 326.43 159.1C331.045 166.293 333.446 173.21 333.63 179.85C333.63 181.326 333.076 182.709 331.968 184C330.861 185.107 329.476 185.66 327.814 185.66H291.257C289.226 185.66 287.472 185.291 285.995 184.553C284.518 183.816 283.226 182.617 282.118 180.957C281.01 176.899 278.056 173.394 273.255 170.443C268.455 167.308 262.27 165.74 254.7 165.74C246.761 165.74 240.483 167.216 235.867 170.167C231.252 172.933 228.944 177.268 228.944 183.17C228.944 186.859 230.144 190.087 232.544 192.853C235.129 195.62 239.375 198.018 245.284 200.047C251.192 202.076 259.223 204.197 269.378 206.41C286.18 209.546 299.75 213.511 310.09 218.307C320.429 222.918 327.999 229.004 332.799 236.567C337.6 243.944 340 253.259 340 264.51C340 275.392 337.231 284.983 331.692 293.283C326.337 301.583 318.767 308.316 308.982 313.48C299.196 318.644 287.749 322.057 274.64 323.717V343.083C274.64 345.112 273.902 346.772 272.425 348.063C271.132 349.354 269.563 350 267.716 350H244.73Z" fill="#F8931F"/>
</svg>
