<svg width="512" height="512" viewBox="0 0 512 512" fill="none" xmlns="http://www.w3.org/2000/svg">
<path d="M354.989 150.029C373.606 165.651 388.262 185.457 397.758 207.827C407.254 230.198 411.32 254.499 409.625 278.743C407.93 302.986 400.521 326.484 388.004 347.316C375.487 368.147 358.217 385.721 337.608 398.599C316.998 411.478 293.632 419.296 269.422 421.414C245.212 423.532 220.844 419.89 198.311 410.786C175.777 401.682 155.719 387.375 139.775 369.033C123.831 350.691 112.454 328.837 106.574 305.256" stroke="#F8931F" stroke-width="76" stroke-linecap="round"/>
<path d="M332.196 55.0789C205.213 42.059 141.545 184.09 147.5 252C153.732 323.075 205.721 363.944 251.86 363.944C298 363.944 355.5 337 355 266.5C354.5 196 275.037 189.825 275.037 153.743C275.037 108.934 309.942 90.5297 336.539 69.9509C342.817 65.0941 340.092 55.8884 332.196 55.0789ZM225.102 216.15C219.643 209.4 225.849 201.294 234.064 204.1C274.18 217.805 311.75 239.698 312.876 269.072C314.202 303.67 295.477 330.195 259.664 330.195C231.532 330.195 212.882 317.514 212.609 300.843C212.068 267.919 230.638 275.991 241.249 256.385C248.959 242.141 237.063 230.941 225.102 216.15Z" fill="#BB2234"/>
</svg>
