<svg width="512" height="512" viewBox="0 0 512 512" fill="none" xmlns="http://www.w3.org/2000/svg">
<path d="M0 256C0 114.615 114.615 0 256 0C397.385 0 512 114.615 512 256C512 397.385 397.385 512 256 512C114.615 512 0 397.385 0 256Z" fill="#F8931F"/>
<path d="M330.242 176.522C344.205 188.238 355.196 203.092 362.318 219.871C369.44 236.649 372.49 254.874 371.219 273.057C369.947 291.24 364.39 308.863 355.003 324.487C345.615 340.111 332.663 353.291 317.206 362.95C301.748 372.608 284.224 378.472 266.066 380.06C247.909 381.649 229.633 378.918 212.733 372.09C195.833 365.262 180.789 354.531 168.831 340.775C156.873 327.019 148.34 310.628 143.931 292.942" stroke="#FAE4CF" stroke-width="57" stroke-linecap="round"/>
<path d="M313.147 105.309C217.91 95.5445 170.159 202.067 174.625 253C179.299 306.306 218.29 336.958 252.895 336.958C287.5 336.958 330.625 316.75 330.25 263.875C329.874 211 270.278 206.369 270.278 179.307C270.278 145.7 296.457 131.898 316.405 116.464C321.113 112.821 319.069 105.916 313.147 105.309ZM232.827 226.113C228.733 221.05 233.386 214.971 239.547 217.076C269.635 227.355 297.812 243.774 298.657 265.804C299.651 291.753 285.608 311.646 258.748 311.646C237.649 311.646 223.661 302.135 223.456 289.631C223.051 264.939 236.979 270.994 244.937 256.29C250.719 245.607 241.798 237.206 232.827 226.113Z" fill="#FAE4CF"/>
</svg>
